# xmcd
#
# Track frame offsets:
#	150
#	16492
#	34082
#	54502
#	71610
#	88362
#	106515
#	124717
#	140142
#	157447
#	172700
#	190202
#
# Disc length: 2754 seconds
#
# Revision: 1
# Processed by: cddbd v1.5.2PL0 Copyright (c) Steve Scherf et al.
# Submitted via: EasyCDDAExtractor 15.3.0.1
#
DISCID=a50ac00c
DTITLE=Patricia Manterola - Dejame Volar
DYEAR=2003
DGENRE=Latin
TTITLE0=Te Quiero Todo Para Mi
TTITLE1=La Bomba
TTITLE2=Dejame Volar
TTITLE3=Quedate Conmigo
TTITLE4=Me Provoca
TTITLE5=Si Te Besara
TTITLE6=Me Condenas
TTITLE7=Amor En Libertad
TTITLE8=Espejismos
TTITLE9=Angel
TTITLE10=Shake Your Body Aka La Bomba
TTITLE11=I Believe
EXTD=submitted by Tony, Caracas Venezuela
EXTT0=
EXTT1=
EXTT2=
EXTT3=
EXTT4=
EXTT5=
EXTT6=
EXTT7=
EXTT8=
EXTT9=
EXTT10=
EXTT11=
PLAYORDER=
